<svg xmlns="http://www.w3.org/2000/svg" xmlns:xlink="http://www.w3.org/1999/xlink" xmlns:fi="http://pattern.flaticon.com/" x="0" y="0" width="1500" height="750" viewBox="0 0 1166.6666666666665 583.3333333333333"><rect x="0px" y="0px" width="100%" height="100%" opacity="0" fill="#ffffff"/><defs><g transform="matrix(0.5483009541859253 0.5483009541859252 -0.5483009541859252 0.5483009541859253 181.28419337475438 276.8936218669337)" id="L1_8"><path d="m93.559 102.681a7.582 7.582 0 0 0 -7.574 7.573c.356 10.022 14.792 10.02 15.146 0a7.581 7.581 0 0 0 -7.572-7.573zm0 11.146a3.573 3.573 0 0 1 0-7.146 3.573 3.573 0 0 1 0 7.146z" fill="#707070"/><path d="m101.131 72.372a7.581 7.581 0 0 0 -7.572-7.572c-10.024.356-10.021 14.791 0 15.145a7.581 7.581 0 0 0 7.572-7.573zm-11.146 0a3.573 3.573 0 0 1 7.146 0 3.573 3.573 0 0 1 -7.146 0z" fill="#707070"/><path d="m112.9 26.276h-38.8a5.006 5.006 0 0 0 -5 5v7.309a5.006 5.006 0 0 0 5 5h38.8a5.006 5.006 0 0 0 5-5v-7.309a5.006 5.006 0 0 0 -5-5zm1 12.309a1 1 0 0 1 -1 1h-38.8a1 1 0 0 1 -1-1v-7.309a1 1 0 0 1 1-1h38.8a1 1 0 0 1 1 1z" fill="#707070"/><path d="m112.9 82.745h-38.8a5.006 5.006 0 0 0 -5 5v7.308a5.006 5.006 0 0 0 5 5h38.8a5.006 5.006 0 0 0 5-5v-7.308a5.006 5.006 0 0 0 -5-5zm1 12.308a1 1 0 0 1 -1 1h-38.8a1 1 0 0 1 -1-1v-7.308a1 1 0 0 1 1-1h38.8a1 1 0 0 1 1 1z" fill="#707070"/><path d="m53.424 26.276h-9.75a1 1 0 0 1 -1-1v-9.749a5.006 5.006 0 0 0 -5-5h-7.309a5.006 5.006 0 0 0 -5 5v9.749a1 1 0 0 1 -1 1h-9.749a5.006 5.006 0 0 0 -5 5v7.309a5.006 5.006 0 0 0 5 5h9.749a1 1 0 0 1 1 1v9.75a5.006 5.006 0 0 0 5 5h7.309a5.006 5.006 0 0 0 5-5v-9.75a1 1 0 0 1 1-1h9.75a5.006 5.006 0 0 0 5-5v-7.309a5.006 5.006 0 0 0 -5-5zm1 12.309a1 1 0 0 1 -1 1h-9.75a5.006 5.006 0 0 0 -5 5v9.75a1 1 0 0 1 -1 1h-7.309a1 1 0 0 1 -1-1v-9.75a5.006 5.006 0 0 0 -5-5h-9.749a1 1 0 0 1 -1-1v-7.309a1 1 0 0 1 1-1h9.749a5.006 5.006 0 0 0 5-5v-9.749a1 1 0 0 1 1-1h7.309a1 1 0 0 1 1 1v9.749a5.006 5.006 0 0 0 5 5h9.75a1 1 0 0 1 1 1z" fill="#707070"/><path d="m53.86 84.4a5.006 5.006 0 0 0 0-7.07l-5.168-5.169a5.006 5.006 0 0 0 -7.071 0l-6.893 6.894a1 1 0 0 1 -1.416 0l-6.893-6.895a5.006 5.006 0 0 0 -7.071 0l-5.168 5.168a5.022 5.022 0 0 0 0 7.07l6.894 6.9a1 1 0 0 1 0 1.414l-6.894 6.888a5.023 5.023 0 0 0 0 7.071l5.168 5.169a5.006 5.006 0 0 0 7.071 0l6.893-6.894a1 1 0 0 1 1.416 0l6.893 6.895a5.007 5.007 0 0 0 7.071 0l5.169-5.168a5.006 5.006 0 0 0 0-7.07l-6.894-6.9a1 1 0 0 1 0-1.414zm-9.722 11.135 6.894 6.9a1 1 0 0 1 0 1.414l-5.168 5.168a1 1 0 0 1 -1.415 0l-6.893-6.895a5.008 5.008 0 0 0 -7.072 0l-6.893 6.894a1 1 0 0 1 -1.415 0l-5.168-5.168a1 1 0 0 1 0-1.414l6.894-6.9a5 5 0 0 0 0-7.07l-6.894-6.9a1 1 0 0 1 0-1.414l5.168-5.168a1 1 0 0 1 1.415 0l6.893 6.895a5.008 5.008 0 0 0 7.072 0l6.893-6.894a1 1 0 0 1 1.415 0l5.167 5.167a1 1 0 0 1 0 1.415l-6.894 6.894a5.022 5.022 0 0 0 .001 7.076z" fill="#707070"/></g><g transform="matrix(0.4210112690925598 0 0 0.4210112690925598 260.99999383284285 93)" id="L1_9"><path d="M34.367,142.514c11.645,0,17.827-10.4,19.645-16.544c0.029-0.097,0.056-0.196,0.081-0.297    c4.236-17.545,10.984-45.353,15.983-65.58h17.886c3.363,0,6.09-2.726,6.09-6.09c0-3.364-2.727-6.09-6.09-6.09H73.103    c1.6-6.373,2.771-10.912,3.232-12.461l0.512-1.734c1.888-6.443,6.309-21.535,13.146-21.535c6.34,0,7.285,9.764,7.328,10.236    c0.27,3.343,3.186,5.868,6.537,5.579c3.354-0.256,5.864-3.187,5.605-6.539C108.894,14.036,104.087,0,89.991,0    C74.03,0,68.038,20.458,65.159,30.292l-0.49,1.659c-0.585,1.946-2.12,7.942-4.122,15.962H39.239c-3.364,0-6.09,2.726-6.09,6.09    c0,3.364,2.726,6.09,6.09,6.09H57.53c-6.253,25.362-14.334,58.815-15.223,62.498c-0.332,0.965-2.829,7.742-7.937,7.742    c-7.8,0-11.177-10.948-11.204-11.03c-0.936-3.229-4.305-5.098-7.544-4.156c-3.23,0.937-5.092,4.314-4.156,7.545    C13.597,130.053,20.816,142.514,34.367,142.514z" fill="#707070"/><path d="M124.685,126.809c3.589,0,6.605-2.549,6.605-6.607c0-1.885-0.754-3.586-2.359-5.474l-12.646-14.534l12.271-14.346    c1.132-1.416,1.98-2.926,1.98-4.908c0-3.59-2.927-6.231-6.703-6.231c-2.547,0-4.527,1.604-6.229,3.684l-9.531,12.454L98.73,78.391    c-1.89-2.357-3.869-3.682-6.7-3.682c-3.59,0-6.607,2.551-6.607,6.609c0,1.885,0.756,3.586,2.357,5.471l11.799,13.592    L86.647,115.67c-1.227,1.416-1.98,2.926-1.98,4.908c0,3.589,2.926,6.229,6.699,6.229c2.549,0,4.53-1.604,6.229-3.682l10.19-13.4    l10.193,13.4C119.872,125.488,121.854,126.809,124.685,126.809z" fill="#707070"/></g><path d="M72.766,74.275c-13.366-10.451-3.933-53.438-3.933-53.438s14.631,0,16.336,0s8.389-1.072,8.389-9.076    c0-9.846-8.168-9.241-8.168-9.241s-44.774,0-60.147,0c-9.873,0-18.784,11.304-23.899,19.389c-2.723,4.318-1.183,5.528,3.493,3.493    c16.392-7.178,21.012-4.593,21.012-4.593c1.155,5.528,1.54,30.473-2.667,40.318c-4.263,9.269-12.128,21.012-0.578,27.915    c9.021,5.115,18.481-5.391,17.546-23.268c-0.44-9.461-1.183-44.938-1.183-44.938h15.072c-0.469,5.528-3.025,33.745-0.357,50.467    c2.777,27.915,33.112,22.497,38.777,6.685c1.402-4.373,1.073-7.729,0.027-10.26c-1.926-4.702-5.144-4.949-4.785-2.75    c0.221,1.402,0.083,2.777-0.138,4.016C86.902,72.817,79.092,78.811,72.766,74.275z" transform="matrix(0.21509540286141984 -0.04609187205377159 0.04609187205377159 0.21509540286141984 105.63173335024727 173.37051365755596)" id="L1_10" fill="#707070"/><path d="m16 24c-3.86 0-7-3.589-7-8s3.14-8 7-8 7 3.589 7 8a1 1 0 0 1 -1 1h-10.931c.4 2.834 2.458 5 4.931 5a4.7 4.7 0 0 0 3.787-2.088 1 1 0 0 1 1.624 1.168 6.675 6.675 0 0 1 -5.411 2.92zm-4.931-9h9.862c-.4-2.834-2.458-5-4.931-5s-4.533 2.166-4.931 5z" transform="matrix(1.875 0 0 1.875 255 259)" id="L1_11"/><g transform="matrix(-0.8436615076227713 0.11504474785066238 0.11504474785066238 0.8436615076227713 29.029568953404972 38.90846261800304)" id="L1_14"><path d="M5.941,20h32.117C41.335,20,44,17.309,44,14s-2.665-6-5.941-6H5.941C2.665,8,0,10.691,0,14S2.665,20,5.941,20z M5.941,10   h32.117C40.195,10,42,11.832,42,14s-1.805,4-3.941,4H5.941C3.805,18,2,16.168,2,14S3.805,10,5.941,10z" fill="#707070"/><path d="M38.059,24H5.941C2.665,24,0,26.691,0,30s2.665,6,5.941,6h32.117C41.335,36,44,33.309,44,30S41.335,24,38.059,24z    M38.059,34H5.941C3.805,34,2,32.168,2,30s1.805-4,3.941-4h32.117C40.195,26,42,27.832,42,30S40.195,34,38.059,34z" fill="#707070"/></g><g transform="matrix(0.05531172826886177 0 0 0.05531172826886177 197.8401975631714 207.8401975631714)" id="L1_15"><path d="M437.02,74.98C388.667,26.628,324.38,0,256,0S123.333,26.628,74.98,74.98C26.628,123.333,0,187.62,0,256    s26.628,132.667,74.98,181.02C123.333,485.372,187.62,512,256,512s132.667-26.628,181.02-74.98    C485.372,388.667,512,324.38,512,256S485.372,123.333,437.02,74.98z M256,491.602c-129.911,0-235.602-105.69-235.602-235.602    S126.089,20.398,256,20.398S491.602,126.089,491.602,256S385.911,491.602,256,491.602z" fill="#ffffff"/><path d="M256,449.785c-106.853,0-193.785-86.932-193.785-193.785c0-5.633-4.566-10.199-10.199-10.199    c-5.633,0-10.199,4.566-10.199,10.199c0,118.101,96.083,214.183,214.183,214.183c5.633,0,10.199-4.566,10.199-10.199    C266.199,454.351,261.633,449.785,256,449.785z" fill="#ffffff"/><path d="M432.035,133.957c-24.38-35.103-58.218-61.874-97.856-77.422c-5.24-2.056-11.162,0.526-13.219,5.771    s0.526,11.162,5.771,13.219C401.483,104.846,449.785,175.686,449.785,256c0,5.633,4.566,10.199,10.199,10.199    c5.633,0,10.199-4.566,10.199-10.199C470.183,212.093,456.992,169.892,432.035,133.957z" fill="#ffffff"/><path d="M280.619,43.217c-8.114-0.929-16.397-1.4-24.619-1.4c-5.633,0-10.199,4.566-10.199,10.199    c0,5.633,4.566,10.199,10.199,10.199c7.449,0,14.951,0.426,22.297,1.268c0.394,0.046,0.785,0.067,1.173,0.067    c5.114,0,9.525-3.838,10.121-9.04C290.233,48.914,286.215,43.858,280.619,43.217z" fill="#ffffff"/></g><path d="m11.5 2.5v-2a.5.5 0 0 1 1 0v2a.5.5 0 0 1 -1 0zm0 21a.5.5 0 0 0 1 0v-2a.5.5 0 0 0 -1 0zm12-12h-2a.5.5 0 0 0 0 1h2a.5.5 0 0 0 0-1zm-21 1a.5.5 0 0 0 0-1h-2a.5.5 0 0 0 0 1zm15.864 6.571 1.414 1.414a.5.5 0 0 0 .707-.707l-1.414-1.414a.5.5 0 0 0 -.707.707zm-13.435-13.435a.5.5 0 1 0 .707-.707l-1.414-1.414a.5.5 0 1 0 -.707.707zm13.788.146a.5.5 0 0 0 .354-.146l1.414-1.414a.5.5 0 1 0 -.707-.707l-1.414 1.414a.5.5 0 0 0 .353.853zm-15.2 14.7a.5.5 0 0 0 .707 0l1.414-1.414a.5.5 0 1 0 -.707-.707l-1.416 1.417a.5.5 0 0 0 0 .707z" transform="matrix(2.298097094266082 -0.23570227375693578 0.23570227375693578 2.298097094266082 47.594407583723786 112.25126215389025)" id="L1_16" fill="#ffffff"/><g transform="matrix(0.09357739984989166 0 0 0.09357739984989166 62.561547726392746 251.56351054750917)" id="L1_17"><path d="M333.927,366.825c-49.027,15.711-102.5-5.691-127.133-50.879l-2.223-4.072l-41.401,21.807l2.257,4.184    c35.219,65.264,112.092,96.189,182.788,73.535c81.018-25.961,125.813-112.995,99.852-194.018l-1.435-4.48l-44.576,14.281    l1.435,4.48C421.572,288.106,390.365,348.737,333.927,366.825z"/><path d="M143.174,346.614l-43.385,19.234l2.243,4.424c12.178,24.02,28.262,45.445,47.798,63.662    c92.379,86.152,237.628,81.09,323.782-11.293c86.153-92.385,81.09-237.629-11.293-323.782l-3.443-3.208l-31.924,34.229    l3.442,3.208c73.507,68.554,77.537,184.122,8.984,257.624c-68.554,73.506-184.122,77.537-257.624,8.984    c-14.703-13.713-27.005-30.238-36.558-49.104L143.174,346.614z"/><path d="M560.955,270.64c0,141.75-115.323,257.074-257.073,257.074S46.808,412.39,46.808,270.64    c0-79.618,36.505-153.244,98.723-201.917l-30.877-35.482C42.29,90.664,0,177.057,0,270.64    c0,167.564,136.318,303.882,303.882,303.882c167.563,0,303.882-136.318,303.882-303.882v-4.705h-46.809V270.64z"/></g></defs><g fi:class="KUsePattern" opacity="0.63"><pattern id="pattern_L1_8" width="350" height="350" patternUnits="userSpaceOnUse"><use xlink:href="#L1_8" x="-350" y="-350"/><use xlink:href="#L1_8" x="0" y="-350"/><use xlink:href="#L1_8" x="350" y="-350"/><use xlink:href="#L1_8" x="-350" y="0"/><use xlink:href="#L1_8" x="0" y="0"/><use xlink:href="#L1_8" x="350" y="0"/><use xlink:href="#L1_8" x="-350" y="350"/><use xlink:href="#L1_8" x="0" y="350"/><use xlink:href="#L1_8" x="350" y="350"/></pattern><rect x="0" y="0" width="100%" height="100%" fill="url(#pattern_L1_8)"/></g><g fi:class="KUsePattern" opacity="0.58"><pattern id="pattern_L1_9" width="350" height="350" patternUnits="userSpaceOnUse"><use xlink:href="#L1_9" x="-350" y="-350"/><use xlink:href="#L1_9" x="0" y="-350"/><use xlink:href="#L1_9" x="350" y="-350"/><use xlink:href="#L1_9" x="-350" y="0"/><use xlink:href="#L1_9" x="0" y="0"/><use xlink:href="#L1_9" x="350" y="0"/><use xlink:href="#L1_9" x="-350" y="350"/><use xlink:href="#L1_9" x="0" y="350"/><use xlink:href="#L1_9" x="350" y="350"/></pattern><rect x="0" y="0" width="100%" height="100%" fill="url(#pattern_L1_9)"/></g><g fi:class="KUsePattern" opacity="0.6"><pattern id="pattern_L1_10" width="350" height="350" patternUnits="userSpaceOnUse"><use xlink:href="#L1_10" x="-350" y="-350"/><use xlink:href="#L1_10" x="0" y="-350"/><use xlink:href="#L1_10" x="350" y="-350"/><use xlink:href="#L1_10" x="-350" y="0"/><use xlink:href="#L1_10" x="0" y="0"/><use xlink:href="#L1_10" x="350" y="0"/><use xlink:href="#L1_10" x="-350" y="350"/><use xlink:href="#L1_10" x="0" y="350"/><use xlink:href="#L1_10" x="350" y="350"/></pattern><rect x="0" y="0" width="100%" height="100%" fill="url(#pattern_L1_10)"/></g><g fi:class="KUsePattern" opacity="0.21"><pattern id="pattern_L1_11" width="350" height="350" patternUnits="userSpaceOnUse"><use xlink:href="#L1_11" x="-350" y="-350"/><use xlink:href="#L1_11" x="0" y="-350"/><use xlink:href="#L1_11" x="350" y="-350"/><use xlink:href="#L1_11" x="-350" y="0"/><use xlink:href="#L1_11" x="0" y="0"/><use xlink:href="#L1_11" x="350" y="0"/><use xlink:href="#L1_11" x="-350" y="350"/><use xlink:href="#L1_11" x="0" y="350"/><use xlink:href="#L1_11" x="350" y="350"/></pattern><rect x="0" y="0" width="100%" height="100%" fill="url(#pattern_L1_11)"/></g><g fi:class="KUsePattern" opacity="0.63"><pattern id="pattern_L1_14" width="350" height="350" patternUnits="userSpaceOnUse"><use xlink:href="#L1_14" x="-350" y="-350"/><use xlink:href="#L1_14" x="0" y="-350"/><use xlink:href="#L1_14" x="350" y="-350"/><use xlink:href="#L1_14" x="-350" y="0"/><use xlink:href="#L1_14" x="0" y="0"/><use xlink:href="#L1_14" x="350" y="0"/><use xlink:href="#L1_14" x="-350" y="350"/><use xlink:href="#L1_14" x="0" y="350"/><use xlink:href="#L1_14" x="350" y="350"/></pattern><rect x="0" y="0" width="100%" height="100%" fill="url(#pattern_L1_14)"/></g><g fi:class="KUsePattern"><pattern id="pattern_L1_15" width="350" height="350" patternUnits="userSpaceOnUse"><use xlink:href="#L1_15" x="-350" y="-350"/><use xlink:href="#L1_15" x="0" y="-350"/><use xlink:href="#L1_15" x="350" y="-350"/><use xlink:href="#L1_15" x="-350" y="0"/><use xlink:href="#L1_15" x="0" y="0"/><use xlink:href="#L1_15" x="350" y="0"/><use xlink:href="#L1_15" x="-350" y="350"/><use xlink:href="#L1_15" x="0" y="350"/><use xlink:href="#L1_15" x="350" y="350"/></pattern><rect x="0" y="0" width="100%" height="100%" fill="url(#pattern_L1_15)"/></g><g fi:class="KUsePattern"><pattern id="pattern_L1_16" width="350" height="350" patternUnits="userSpaceOnUse"><use xlink:href="#L1_16" x="-350" y="-350"/><use xlink:href="#L1_16" x="0" y="-350"/><use xlink:href="#L1_16" x="350" y="-350"/><use xlink:href="#L1_16" x="-350" y="0"/><use xlink:href="#L1_16" x="0" y="0"/><use xlink:href="#L1_16" x="350" y="0"/><use xlink:href="#L1_16" x="-350" y="350"/><use xlink:href="#L1_16" x="0" y="350"/><use xlink:href="#L1_16" x="350" y="350"/></pattern><rect x="0" y="0" width="100%" height="100%" fill="url(#pattern_L1_16)"/></g><g fi:class="KUsePattern" opacity="0.11"><pattern id="pattern_L1_17" width="350" height="350" patternUnits="userSpaceOnUse"><use xlink:href="#L1_17" x="-350" y="-350"/><use xlink:href="#L1_17" x="0" y="-350"/><use xlink:href="#L1_17" x="350" y="-350"/><use xlink:href="#L1_17" x="-350" y="0"/><use xlink:href="#L1_17" x="0" y="0"/><use xlink:href="#L1_17" x="350" y="0"/><use xlink:href="#L1_17" x="-350" y="350"/><use xlink:href="#L1_17" x="0" y="350"/><use xlink:href="#L1_17" x="350" y="350"/></pattern><rect x="0" y="0" width="100%" height="100%" fill="url(#pattern_L1_17)"/></g></svg>